<svg width="42" height="42" viewBox="0 0 42 42" fill="none" xmlns="http://www.w3.org/2000/svg">
<path d="M39.75 16.8333H2.25002C1.69749 16.8333 1.16758 17.0528 0.776881 17.4435C0.38618 17.8342 0.166687 18.3641 0.166687 18.9166C0.16678 22.5736 1.12945 26.166 2.95796 29.333C4.78646 32.5 7.41637 35.1298 10.5834 36.9583V39.75C10.5834 40.3025 10.8028 40.8324 11.1935 41.2231C11.5842 41.6138 12.1142 41.8333 12.6667 41.8333H29.3334C29.8859 41.8333 30.4158 41.6138 30.8065 41.2231C31.1972 40.8324 31.4167 40.3025 31.4167 39.75V36.9583C34.5837 35.1298 37.2136 32.5 39.0421 29.333C40.8706 26.166 41.8333 22.5736 41.8334 18.9166C41.8334 18.3641 41.6139 17.8342 41.2232 17.4435C40.8325 17.0528 40.3026 16.8333 39.75 16.8333ZM14.75 14.75V12.5208C14.7513 10.0692 13.7944 7.71412 12.0834 5.95829C11.6003 5.47022 11.219 4.8911 10.9615 4.25453C10.704 3.61795 10.5755 2.93659 10.5834 2.24996V0.166626H6.41669V2.24996C6.40445 4.716 7.36223 7.08799 9.08335 8.85413C10.0487 9.82978 10.5881 11.1483 10.5834 12.5208V14.75H14.75ZM23.0834 14.75V12.5208C23.0847 10.0692 22.1277 7.71412 20.4167 5.95829C19.9337 5.47022 19.5524 4.8911 19.2949 4.25453C19.0374 3.61795 18.9088 2.93659 18.9167 2.24996V0.166626H14.75V2.24996C14.7487 4.70159 15.7057 7.05664 17.4167 8.81246C17.8997 9.30054 18.281 9.87965 18.5385 10.5162C18.796 11.1528 18.9245 11.8342 18.9167 12.5208V14.75H23.0834ZM31.4167 14.75V12.5208C31.418 10.0692 30.461 7.71412 28.75 5.95829C28.267 5.47022 27.8857 4.8911 27.6282 4.25453C27.3707 3.61795 27.2422 2.93659 27.25 2.24996V0.166626H23.0834V2.24996C23.082 4.70159 24.039 7.05664 25.75 8.81246C26.233 9.30054 26.6144 9.87965 26.8718 10.5162C27.1293 11.1528 27.2579 11.8342 27.25 12.5208V14.75H31.4167Z" fill="#C39F6F"/>
</svg>
