<svg width="31" height="31" viewBox="0 0 31 31" fill="none" xmlns="http://www.w3.org/2000/svg">
<path d="M9.46538 17.2894L10.9654 19.8875L16.4213 16.7375L15.5429 20.016L18.4115 20.7846L20.6077 12.5885L12.4115 10.3923L11.6429 13.261L14.9213 14.1394L9.46538 17.2894ZM2.42115 23.0885C1.38365 21.2915 0.749868 19.4057 0.519794 17.4312C0.289723 15.4567 0.42132 13.5477 0.914589 11.704C1.40872 9.85989 2.24929 8.14079 3.43629 6.54672C4.62328 4.95266 6.11503 3.63645 7.91153 2.59808C9.70854 1.56058 11.5943 0.926798 13.5688 0.696726C15.5433 0.466654 17.4523 0.598252 19.296 1.09152C21.1401 1.58565 22.8592 2.42622 24.4533 3.61322C26.0473 4.80021 27.3636 6.29196 28.4019 8.08847C29.4394 9.88547 30.0732 11.7712 30.3033 13.7457C30.5333 15.7202 30.4017 17.6293 29.9085 19.4729C29.4143 21.317 28.574 23.0366 27.3875 24.6315C26.201 26.2264 24.709 27.5422 22.9115 28.5788C21.1145 29.6163 19.2288 30.2501 17.2543 30.4802C15.2798 30.7103 13.3707 30.5787 11.5271 30.0854C9.68295 29.5913 7.96342 28.751 6.36849 27.5645C4.77357 26.378 3.45779 24.886 2.42115 23.0885ZM5.01923 21.5885C6.69423 24.4896 9.11973 26.3657 12.2957 27.2168C15.4718 28.0678 18.5103 27.6558 21.4115 25.9808C24.3127 24.3058 26.1888 21.8803 27.0398 18.7043C27.8908 15.5282 27.4788 12.4897 25.8038 9.58847C24.1288 6.68728 21.7033 4.81118 18.5273 3.96017C15.3513 3.10916 12.3127 3.52116 9.41153 5.19616C6.51035 6.87116 4.63425 9.29666 3.78324 12.4727C2.93223 15.6487 3.34423 18.6873 5.01923 21.5885Z" fill="#583D12"/>
</svg>
